# xmcd CD database file
#
# Track frame offsets:
#	150
#	25543
#	48526
#	67631
#	84414
#	105840
#	117237
#	139217
#	152927
#	170478
#	193047
#	208956
#	222671
#	240741
#	252610
#	272506
#	282755
#
# Disc length: 4062 seconds
#
# Revision: 4
# Processed by: cddbd v1.5.1PL2 Copyright (c) Steve Scherf et al.
# Submitted via: CDex 1.60beta1
#
DISCID=f60fdc11
DTITLE=Various Artist - Narada - 20 Years of Narada Piano (1 of 2)
DYEAR=2001
DGENRE=New Age
TTITLE0=Jones, Michael - Endings
TTITLE1=Kostia - Sunrise
TTITLE2=Gratz, Wayne - Dark Eyes
TTITLE3=Lanz, David - Beloved
TTITLE4=Jarig, Mia - Water Circles
TTITLE5=Simon, Fred - Minor Truths
TTITLE6=Larkin, Sheila - Poetic Justice
TTITLE7=Cardall, Paul - Bethel
TTITLE8=Gettel, Michael - Orcas
TTITLE9=Stein, Ira - Jonathan's Lullaby
TTITLE10=Mirowitz, Sheldon - August 23, 1962
TTITLE11=Brewer, Spencer - Innocence
TTITLE12=Gettel, Michael - Watercolors
TTITLE13=Gratz, Wayne - Good Question
TTITLE14=Kostia - Flowers on the Water
TTITLE15=Stein, Ira - La Source
TTITLE16=Brewer, Spencer - Ghost Mountain
EXTD=New Age - Piano YEAR: 2001
EXTT0=
EXTT1=
EXTT2=
EXTT3=
EXTT4=
EXTT5=
EXTT6=
EXTT7=
EXTT8=
EXTT9=
EXTT10=
EXTT11=
EXTT12=
EXTT13=
EXTT14=
EXTT15=
EXTT16=
PLAYORDER=
